<?xml version="1.0" encoding="UTF-8"?>
<svg width="272.76mm" height="172.3mm" version="1.1" viewBox="0 0 272.76 172.3" xmlns="http://www.w3.org/2000/svg" xmlns:cc="http://creativecommons.org/ns#" xmlns:dc="http://purl.org/dc/elements/1.1/" xmlns:rdf="http://www.w3.org/1999/02/22-rdf-syntax-ns#">
 <title>P-220112-2</title>
 <metadata>
  <rdf:RDF>
   <cc:Work rdf:about="">
    <dc:format>image/svg+xml</dc:format>
    <dc:type rdf:resource="http://purl.org/dc/dcmitype/StillImage"/>
    <dc:title>P-220112-2</dc:title>
   </cc:Work>
  </rdf:RDF>
 </metadata>
 <g transform="translate(35.419 -49.815)">
  <path d="m235.34 135.96a134.38 84.149 0 0 1-134.38 84.149 134.38 84.149 0 0 1-134.38-84.149 134.38 84.149 0 0 1 134.38-84.149 134.38 84.149 0 0 1 134.38 84.149z" fill="#f92706" fill-rule="evenodd"/>
  <g fill="#fff">
   <path transform="scale(.26458)" d="m284.71 278.09c-25.172-0.31899-49.067 3.1844-63.994 6.2402-45.119 9.2364-168.05 45.65-245 89.959-36.084 20.777-16.874 29.762 14.285 40.715 7.4836 2.6306 17.575 1.0323 30-5 21.765-10.567 75.323-34.652 131.43-51.428-58.269 88.894-117.82 177.79-169.66 266.68-7.4464 17.391-13.317 33.466-6.0527 46.176 8.2579 11.88 14.72 25.57 25.713 33.572 7.1385-0.95456 6.254-5.9205 8.5723-9.2852 25.834-58.095 63.85-116.19 100.71-174.29 59.771 15.316 124.48 4.4084 182.14-38.57 41.056-31.659 100.44-70.229 96.428-131.43-3.8169-58.192-56.521-72.733-104.58-73.342zm-1.8555 58.006c2.0936-6e-3 4.0635 0.0115 5.873 0.0508 47.122 1.0241 60.719 13.017 40.277 42.498-52.81 76.165-122.93 96.055-164.09 95.994-8.0578-0.0113-18.544-0.58936-11.486-13.947 17.296-32.735 36.262-66.806 80.404-121.02 13.683-2.3708 34.368-3.5352 49.023-3.5781z"/>
   <path transform="scale(.26458)" d="m393.32 447.57c-34.936-0.1073-74.883 33.677-106.05 64.598-92.81 92.078-72.41 150.38-36.457 177.9 38.386 29.379 102.67 22.413 159.45-73.795 29.033-49.193 63.666-113.3 15.812-155.93-10.022-8.9286-21.11-12.73-32.756-12.766zm-1.6074 47.279c2.4706-3e-3 4.8521 0.3406 7.1289 1.0644 19.85 6.3106-6.1407 60.039-31.186 99.271-42.09 65.933-72.973 62.952-81.262 59.738-27.072-21.421 0.41068-59.33 24.598-93.121 24.71-34.522 56.838-66.927 80.721-66.953z"/>
   <path d="m156.98 135.66c-0.90056-11.108-6.5155-17.803-13.738-17.476-10.753 0.48723-21.676 13.699-21.974 23.638-0.22909 7.6493 4.7672 16.238 7.7303 19.698 6.5603 7.6606 1.6069 11.152-1.9193 11.92-5.8337 1.2706-8.5163-0.74064-12.425-1.5152-3.072-0.60879-5.8538-1.1729-7.5762 0.40407-1.2945 1.1852-2.1577 2.5918-2.9295 4.0406-1.6152 3.032 1.156 4.3914 3.1315 5.3538 9.2798 4.5209 20.447 6.5097 30.507 2.0203 11.821-5.2749 11.891-13.798 7.1721-22.628-3.454-6.4632-11.205-12.945-10.304-18.688 0.83249-5.3065 3.3203-9.0698 8.7884-9.5965 4.7413-0.45668 4.267 4.3204 5.96 6.8691 3.6676 5.5212 7.8765-0.33644 7.5762-4.0406z"/>
   <path d="m186 103.83c-3.874 5.3947-7.5405 10.728-10.571 16.093-5.4258 0.5108-15.856 0.81333-16.523 1.5324-0.62512 0.67403-1.5332 1.0593-1.3325 2.5984 0.19583 1.502 0.62317 3.0084 1.8655 4.0642 0.58569 0.49775 1.3701 0.70479 2.1986 0.73288l7.8619 0.26651-12.992 25.651c-4.7401 9.3587-3.9039 17.254-0.33313 23.452 3.7676 6.5401 9.6695 8.8498 16.856 8.4615 7.2754-0.39311 15.988-4.698 25.185-11.46 4.3158-3.1732 8.5236-6.2228 12.992-11.66 2.1926-2.6678-2.3053-6.8631-4.5972-4.9303-10.854 9.1536-26.878 20.822-36.045 14.991-3.5027-2.228-6.9-6.0054 3.9309-25.584l10.394-18.789c10.026-0.35243 19.572-0.73356 31.447-0.93276 0.62183-0.0104 1.2468-0.19116 1.1993-0.99939l-0.13325-2.2653c-0.15793-2.6849-3.1003-6.1668-7.1956-6.1962l-18.589-0.13325 6.1296-8.3282c1.3296-1.8066 1.1006-2.9983 0.13325-3.9309-1.3769-1.3275-4.4316-3.3998-6.3961-4.8637-1.4515-1.0816-4.1376 0.35155-5.4861 2.2295z"/>
  </g>
 </g>
</svg>
